<?xml version="1.0" encoding="UTF-8"?>
<svg id="Layer_1" data-name="Layer 1" xmlns="http://www.w3.org/2000/svg" xmlns:xlink="http://www.w3.org/1999/xlink" viewBox="0 0 1946.17 1407.52">
  <defs>
    <style>
      .cls-1, .cls-2, .cls-3 {
        fill: none;
      }

      .cls-1, .cls-2, .cls-4 {
        opacity: .3;
      }

      .cls-1, .cls-5, .cls-3 {
        stroke: #ddd4bd;
        stroke-miterlimit: 10;
      }

      .cls-6 {
        clip-path: url(#clippath);
      }

      .cls-2, .cls-7, .cls-8, .cls-9 {
        stroke-width: 0px;
      }

      .cls-5, .cls-8 {
        fill: #639c8e;
      }

      .cls-7 {
        fill: #74906c;
      }

      .cls-9 {
        fill: #E2D9C2;
      }
    </style>
    <clipPath id="clippath">
      <path class="cls-2" d="m877.61,203.68c6.18-.94,12.34-2.44,18.54-2.61,3.61-.1,6.33,2.78,8.69,6.04,4.6,6.37,10.76,8.39,16.25,6.46,8.27-2.9,11.41-9.99,8.57-19.08-2.51-8.03-5.96-15.59-10.66-22.63-4.39-6.58-4.07-13.4-.12-17.69,1.73-1.88,3.55-2.03,5.77-2.09,9.9-.29,18.68,5.57,21.28,14.9.86,3.09,1.56,5.44,5.08,6.41,2.94.81,2.87,3.87,3.61,6.27,2.5,8.13,11.23,12.81,18.37,8.26,13.2-8.4,24.83-4.92,36.46,2.39,4.03,2.53,8.68,6.13,12.66,3.19,5.14-3.79,1.83-9.63.18-14.54-.5-1.48-1.66-2.77-2.04-4.26-.62-2.43.21-4.97,2.19-6.15,1.01-.6,3.49.37,4.82,1.3,3.62,2.52,4.72,6.73,6.52,10.5,2.45,5.12,4.84,5.71,8.46,2.09,2.37-2.37,3.78-6.77,7.17-6.69,2.89.07,5.76,2.89,8.55,4.63,11.58,7.22,24.56,8.56,37.79,9.23,5.91.3,7.58-4.14,9.96-7.84,2.88-4.47,6.34-7.59,12.14-7.89,2.66-.14,5.29-1.61,7.84-2.72,5.23-2.28,6.78-5.43,4.46-11.34-4.62-11.78-8.3-23.94-12.24-35.97-.58-1.77-.4-3.78-.79-5.63-.43-2.08.76-3.6,2.22-4.11,1.83-.64,2.84,1.02,3.54,2.69,3.22,7.63,8.82,12.24,17.06,14.25,5.73,1.39,9.1,6.42,12.78,10.56,3.28,3.69,6.31,7.1,11.44,8.56,4.12,1.17,7.27.11,9.95-2.36,2.62-2.41,2.6-5.08,1.97-9.17-1.5-9.79-2.54-19.56-6.11-28.91-.47-1.24-.23-2.83-.03-4.21.63-4.39,1.45-9.09,6.42-10.48,4.84-1.35,7.9,1.78,10.73,5.48,5.5,7.2,5.87,15.74,7.01,24.08,1.2,8.78,3.2,17.21,9.36,23.97,4.22,4.63,9.39,4.08,12.72-1.42,2.31-3.81,3.71-8.08,3.64-12.67-.04-2.59-.41-5.26.08-7.75,1.09-5.56,4.09-6.25,8.53-2.91,4.95,3.73,6.44,9.6,9.75,14.32,1.66,2.36,2.63,5.38,5.84,4.66,2.67-.6,3.52-3.29,4.62-6.07,1.84-4.65.5-9.08,1.08-13.54.2-1.56-.32-3.55,1.51-4.1.96-.29,2.79.48,3.44,1.34,1.9,2.53,4.33,3.05,7.21,2.77,5.93-.59,11.61,1.29,14.79,5.77,8.86,12.49,21.21,13.18,34.38,11.09,13.58-2.15,24.97,2.54,34.8,10.85,5.67,4.8,11.18,7.73,18.69,6.95,5.18-.54,9.36,2.21,13.56,4.86,8.67,5.46,17.67,9.27,28.51,8.77,6.18-.28,10.54-2.51,12.61-7.41,2.32-5.5,4.79-5.97,10.25-4.33,13.3,3.98,23.73,12.69,34.72,20.18,14.19,9.67,27.23,20.98,40.79,31.56,7.52,5.87,16.04,8.69,25.65,9.27,21.13,1.3,41.85-2.4,62.74-4.26,27.6-2.46,54.82-.22,81.23,8.49,8.18,2.7,16.48,4.31,24.97,4.07,17.33-.5,34.27,1.36,50.6,7.2,11.65,4.17,23.69,3.68,35.65,3.31,4.99-.15,9.79-2.09,13.62-6.12,6.68-7.01,13.78-13.6,17.78-22.66.46-1.05,1.36-1.93,2.11-2.84,5.75-6.92,6.31-7.08,13.51-.68,11.14,9.9,22.83,19.28,32.07,31.07,4.67,5.96,9.63,12.65,6.2,20.35-3.34,7.48-10.62,10.17-19,10.1-5.46-.05-10.93.89-16.4,1.29-2.35.17-5.74-.65-6.14,2.18-.28,1.97,2.31,3.98,4.72,4.91,2.38.92,4.79,1.79,7.12,2.84,3.48,1.57,8.38,3.3,8.2,7.03-.23,4.6-5.65,5.84-9.65,6.96-3.64,1.02-7.56,1.21-11.37,1.49-5.12.39-9.32,1.06-11.72,6.97-1.33,3.29-5.49,6.08-9.02,7.76-12.5,5.93-18.43,15.4-19.34,29.09-.93,13.94-5.82,26.67-17.01,35.96-6.38,5.31-9.4,11.92-9.88,19.85-.41,6.92-5.81,13.12-2.9,20.49.08.2.11.61,0,.68-7.92,5.21-5.06,16.03-11.46,21.84-4,3.63-3.78,7.59-2.8,12.09,1.45,6.67.4,8.29-6.4,8.37-4.91.06-10.03-.18-14.68-1.56-15.63-4.64-31.74-6.81-47.85-5.48-30.32,2.51-60.55,5.75-90.05,14.08-36.2,10.23-55.63,34.38-62.91,70.01-1.47,7.2-1.48,14.25-.98,21.22.76,10.69,7.18,17.66,17.58,21.26,21.05,7.29,33.28,22.96,40.65,43.04,2.27,6.18,2.26,12.67,2.05,19.07-.19,5.72,1.2,10.9,5.17,14.75,7.15,6.92,9.35,15.58,9.79,24.82.39,8.24,2.09,16.15,4.36,24.02,2.06,7.14,2.79,14.5,2.84,21.89.08,12.29.09,24.58,2.23,36.72.55,3.13,1.61,6.23,2.86,9.16,1.11,2.6,3.64,5.85,6.21,4.07,8.19-5.67,14.81-1.17,21.47,2.41,5.25,2.82,10.22,6.25,14.95,9.89,2.79,2.14,4.84,5.13.81,8.41-2.48,2.01-1.83,4.61-.72,7.03,3.64,7.93,6.74,15.45,1.02,24.23-1.93,2.96-1.1,8.5,1.13,12.49,1.5,2.68,2.82,5.73,5.05,7.69,6.61,5.8,6.84,13.21,8.17,21.22,2.62,15.77,7.18,31.29,11.93,46.62,1.98,6.4,6.38,12.05,13.28,14.98,2.12.9,4.83,2.36,5.57,4.22,3.69,9.27,7.06,18.7,10.04,28.22,1.34,4.28,1,9.08,2.37,13.35,1.95,6.06,4.5,6.44,9.14,2.16,4.67-4.31,6.27-3.76,9.33,2.09,4.36,8.34.65,15.65-3.05,22.56-5.19,9.71-5.54,9.69,2.26,16.34,1.78,1.52,4.14,2.99,4.87,4.97,3.91,10.65,13.13,11.61,22.23,11.77,5.62.09,7.65,2.79,8.51,7.27,1.95,10.17-5.93,24.96-14.97,27.41-3.82,1.04-8.21,1.45-12.05.68-12.15-2.43-24.34-1.82-36.36-.34-10.41,1.28-11.92,5.85-13.36,13.95-.67,3.76-1.29,7.28-4.55,9.03-4.84,2.59-3.14,6.64-2.59,9.98.53,3.21,2.6,6.18,4.09,9.21,4.43,8.97,4.18,12.85-2.25,18.98-1.86,1.77-4.63,2.07-7.77,1.75-5.85-.59-12.17-.86-17.73.71-9.31,2.64-11.56,11.35-13.56,19.55-1.22,5-1.52,9.75,2.67,14.23,4.09,4.38,2.18,10.78,3.4,16.19.62,2.73-3.64,4.39-6.17,5.49-15.73,6.87-18.33,14.25-10.04,28.41,1.25,2.14,1.52,5.13,1.43,7.7-.15,4.29-3.62,6.04-6.98,3.48-8.37-6.4-18.01-10.03-27.84-13.38-5.81-1.98-11.97.47-17.87-1.99-8.94-3.73-19.03-3.56-27.87-8.37-5.12-2.79-8.85-5.75-7.46-11.45.65-2.66-1.07-4.2-1.66-4.11-5.65.79-10.63-3.95-16.44-1.65-5.29,2.1-7.96-.7-8.46-5.61-.51-5-2.9-7.95-7.92-8.43-5.24-.5-8.93,2.61-9.79,7.06-1.96,10.16-8.52,15.93-17.35,19.61-3.48,1.45-5.29,4.28-7.72,6.56-4.2,3.93-5.25,3.88-7.2-1.48-2.31-6.34-4.04-6.59-8.57-1.43-1.84,2.1-3.73,3.56-7.09,3.81-3.47.26-8.3.46-8.62,6.1-.11,2.04-2.1,1.72-3.51,2.15-6.62,2.03-9.12,6.93-9.28,13.39-.08,2.99.43,6.12-4.27,6.44-4.5.31-6.45-2-7.05-5.75-.35-2.18-.56-4.38-2.96-4.84-2.3-.44-2.58,1.77-3.71,3.32-5.33,7.31-11.46,6.82-16.12-1.35-2.5-4.38-3.99-9.33-5.79-14.07-3.68-9.66-6.65-11.46-17.13-10.65-2.54.19-5.1-.04-7.58-.65-5.28-1.3-10.15-2.31-15.97-1.94-8.04.5-14.51-5.47-19.18-12.2-3.53-5.08-5.26-10.81-6.64-16.89-1.87-8.23-5.11-16.21-11.97-21.89-3.28-2.72-2.54-6.3-1.93-9.2,2.16-10.28,2.23-11.1-6.1-15.3-4.61-2.32-8.62-6.1-11.06-11.09-2.69-5.5-7.8-8.25-14.36-8.3-3.09-.02-6.18-.45-9.27-.67-9.73-.68-11.25-2.86-7.78-11.99,1.57-4.13,3.38-8.26,5.73-11.97,3.33-5.25,5.46-10.88,1.87-16.18-3.98-5.89-11.62-7.4-17.54-6.03-7.04,1.63-13.99-.26-20.81,1.55-1.43.38-3.44-.55-4.93-1.34-3.3-1.77-5.71-3.42-10.22-1.04-3.74,1.98-7.5-2.24-9.77-5.97-2.86-4.7-5.7-9.42-8.56-14.12-1.16-1.9-2.17-3.94-3.59-5.63-7.16-8.45-10.03-8.55-18.49-.72-3.4,3.15-6.87,1.98-9.93-.1-2.89-1.96-5.28-4.63-7.9-6.98-2.37-2.13-4.43-5.37-7.19-6.15-8.1-2.28-11.26-6.78-10.08-15.07.44-3.07-2.52-3.77-5.52-4.34-9.33-1.77-18.59-3.98-27.81-6.29-3.99-1-4.96-3.84-3.61-7.72,2.77-8,2.15-9.6-4.97-13.39-3.55-1.9-7.2-3.39-11.39-3.61-6.43-.33-10.96-3.35-12.87-9.82-1.55-5.22-4.37-9.91-8.59-13.34-3.19-2.6-7.51-3.77-11.25-1.4-4.42,2.8-2.46,7.2-.66,10.42,3.64,6.52,6.71,13.07,7.83,20.54.37,2.47.73,4.64-.06,7.1-1.96,6.1-6.7,8.09-10.58,3.38-5.96-7.23-11.97-14.61-11.12-25.31.37-4.59-1.73-9.54-3.43-14.06-1.4-3.72-5.56-3.71-8.35-2.66-3.42,1.28-6.79,1.61-10.03,1.06-4.5-.76-8.24-.98-10.78,3.64-.78,1.42-2.17,2.17-4.21,2.25-7.65.3-11.08,2.63-11.92,10.52-1.08,10.16-7.05,15.24-15.92,17.54-14.55,3.77-28.59,8.38-40.64,17.72-3.09,2.4-5.98.11-8.49-1.43-9-5.53-14.63-4.43-20.79,3.52-3.56,4.6-8,8.54-12.03,12.78-1.6,1.68-2.46.22-3.58-.69-4.95-4.02-9.69-1.97-13.41,1.52-3.74,3.5-6.01,3.77-8.72-.8-3.28-5.55-8.32-5.1-12.69-2.01-4.62,3.26-10.58,5.03-13.04,11.13-1.64,4.08-6.52,3.72-9.94,4.78-5.03,1.55-6.4,3.47-5.16,8.74.94,4,1.37,8.43-1.06,12.74-2.61,4.61-5.53,6.59-10.85,4.94-3.45-1.07-7.08-1.81-10.68-2.11-5.76-.48-7.85-3.2-5.65-8.53,1.68-4.09,3.85-7.98,5.64-12.03,3.58-8.09,4.46-16.81,5.72-25.42,1.49-10.13,6.26-18.82,11.29-27.61,11.94-20.89,15.54-42.67,8.25-66.42-4.71-15.35-3.17-31.52.43-47.24,2.32-10.16,9.86-16.15,17.77-21.96,4.05-2.97,8.19-6.1,11.34-9.92,8.79-10.63,6.94-25.03-4.98-33.69-14.11-10.25-30.71-15.59-47.71-18.22-16.46-2.55-28.23,11.15-26.75,27.96.46,5.23-.28,10.06-1.25,14.81-.88,4.27-3.46,8.07-4.36,12.7-1.03,5.35-6.32,7.45-11.79,7.07-7.61-.52-13.35,2.22-18.65,7.72-9.6,9.96-15.83,9.38-24.03-2.08-4.79-6.7-8.95-13.9-12.82-21.18-2.74-5.15-5.16-9.63-12.23-7.04-3.26,1.19-5.62-1.31-7.75-2.9-4.13-3.09-7.92-4.89-12.19-.59-2.96,2.98-5.78,1.35-7.76-.8-3.42-3.71-6.22-7.96-9.38-11.91-2.29-2.86-3.98-4.11-7.27-.14-6.87,8.27-13.14,8.33-18.91-.69-11.66-18.23-22.41-37.05-20.88-59.93.2-3.05-.22-6.14.07-9.18,1.18-12.39-2.76-21.45-14.93-27.02-10.05-4.6-14.28-13.81-15.02-24.55-.11-1.59.34-3.63-1.49-4.07-.96-.23-2.41,1.15-3.5,1.98-1.05.81-1.88,1.91-2.88,2.78-1.64,1.43-2.97,4.18-5.64,2.75-2.58-1.38-2.89-4.19-2.93-6.97-.17-11.54-.18-23.09-.8-34.61-.3-5.68-1.81-11.3-2.73-16.96-1.21-7.39,1.65-10.43,9.26-9.89,5.27.37,7.93-3.11,5.64-7.74-1.59-3.21-3.66-6.2-5.68-9.19-.89-1.32-.99-2.31.02-3.57,1.76-2.2,5.56,1.56,6.41,2.16.81.57,1.35,1.53,2.18,2.06,3.34,2.17,20.57-2.1,22.78-5.63,1.99-3.18,4.71-4.64,8.57-4.28,2.83.26,5.7.1,8.55.04,4.71-.1,7.97-2.74,8.37-7.07.39-4.33-2.35-7.59-6.95-8.42-4.96-.89-9.95-1.66-14.97-2.1-4.76-.42-9.5-.04-14.3-1.27-3.43-.88-7.28.37-9.91,3.34-3.28,3.72-7.44,3.54-11.38,2-4.35-1.69-8.74-2.23-12.81-.46-3.6,1.57-5.34-.62-7.11-2.35-2.4-2.34.05-4.44,1.38-6.25,6.79-9.27-2.68-5.22-8.87-11.98-6.21-6.8.73-16.97,8.36-8.07.68.87,1.14,1.84,1.57,2.84,1.43,3.4,3.73,6.24,6.62,8.13.29.19.56.39.82.61,1.94,1.67,3.74,3.13,6.46,1.4,2.44-1.54,3.06-3.83,2.78-6.38-.21-1.91-1.17-4.78-1.47-5.55-4.03-10.27-10.38-17.35-16.3-25.53-5.12-7.08-8.85-14.79-10.65-23.32-1.1-5.18,1.42-10.11,5.64-9.66,7.35.79,14.17-2.67,21.41-1.64,4.36.62,7.95-1.09,10.62-4.29,1.67-2,4.55-4.31,3.44-6.92-1.38-3.22-5.25-3.53-8.34-2.83-19.94,4.54-32.3-10.64-37.85-25.49-1.21-3.24-.6-5.11,2.9-5.65,6.53-1.03,6.53-.99,5-7.79-.53-2.34-.74-4.78-1.47-7.05-2.93-9.11-1.73-10.73,7.88-9.88,4.9.44,8.78-.26,8.54-6.38-.2-5,3.38-4.16,6.43-4.24,6.32-.19,5.5-.83,4.57-7.1-1.61-10.83-5.08-20.87-8.62-31.12-3.35-9.73-3.98-19.87,1.75-29.68,3.14-5.37,3.27-6.07,8.71-2.73,8.06,4.94,10.96,4.73,17.81-1.43,1.74-1.56,3.33-3.29,5-4.93,7.99-7.88,7.94-7.82,16.42-.73,3.98,3.33,8.07,3.63,12.88.85,5.04-2.91,3.52-7.1,2.64-10.68-2.05-8.34-.66-11.89,7.29-14.08,3.43-.94,7.1-1.32,10.67-1.43,9.99-.32,20.18,1.16,29.88-1.65,5.71-1.65,11.27-2.65,17.16-2.69,8.61-.06,16.77,2.01,24.96,4.25,7.12,1.95,12.25-2.53,11.37-9.85-1.13-9.41-5.52-17.25-12.08-24.04-4.21-4.35-7.66-9.15-7.86-15.52-.19-6.17,1.74-8.33,7.84-8.46,11.46-.24,19.97,5.24,26.32,14.15,4.98,7,11.34,10.45,20.02,9.88,5.75-.37,6.2-1.55,4.39-7.14-1.98-6.11-6.91-9.62-10.71-14.17-1.5-1.8-4.05-3.58-2.34-7.03,2.03-4.08,5.42-1.86,7.13-1.14,5.79,2.43,10.95,1.13,15.73-1.71,9.35-5.55,18.56-10.36,16.94-24.7-1.12-9.9,4.72-16.74,16.61-15.5,5.38.56,10.45,2.15,14.93,5.02,5.86,3.76,11.29,8.19,17.19,11.88,5.95,3.72,10.66,2.8,14.21-2.05,3.97-5.42,5.72-5.57,10.72-1.44,4.16,3.44,8.25,7.12,12.95,9.65,1.69.91,5.34,1.64,7.87-1.72,2.64-3.5.65-5.97-1.03-7.77-3.06-3.28-6.99-5.78-10.55-8.61h1.43Z"/>
    </clipPath>
  </defs>
  <path class="cls-9" d="m28.8,1219.45c17.96-24.5,2.25-15.62,31.94-22.02,29.7-6.4,60.62-9.09,88.32-21.55,21.07-9.48,39.29-24.19,59-36.26s42.26-21.76,65.25-19.41c2.2.22,4.5.61,6.2,2.02,3.08,2.55,2.96,7.22,2.65,11.2-1.23,15.72-1.13,32.01,4.76,46.64,12.28,30.47,45.82,46.06,66.74,71.4,13.72,16.63,22.14,37.69,38.51,51.71,11.18,9.57,25.75,15.55,34.14,27.64,8.1,11.67,8.84,26.7,10.77,40.77,4.62,33.67,17.44,65.59,30.14,97.12,3.15,7.82,6.44,15.84,12.29,21.91,15.14,15.71,42.26,13.56,58.14,28.52,4.91,4.63,8.37,10.59,13.08,15.42,15.74,16.16,41.39,16.45,63.76,13.51,12.35-1.63,24.76-3.94,36.12-9.05,23.61-10.61,40.29-32,55.98-52.59,46.45-11.98,86.33-53.22,95.2-100.36,3.4-18.09,2.84-36.67,1.99-55.05-1.3-28.08-3.24-56.12-5.83-84.11-1.83-19.82-3.98-39.78-1.98-59.59.83-8.23,2.27-17.06-1.62-24.35-2.2-4.12-5.88-7.26-8.4-11.2-4.53-7.08-4.89-15.96-5.07-24.36-.66-30.62-.73-62.33,11.59-90.36,10.14-23.08,27.9-41.81,45.31-60.05,19.08-19.98,52.85-14.81,79.35-22.62,19.29-5.68,38.66-11.39,58.56-14.24,22.63-3.24,45.62-2.75,68.37-5,16.05-1.59,32.24-4.55,48.2-2.2,12,1.77,23.33,6.46,34.53,11.12,73.91,30.75,148.13,61.66,216.79,102.84,15.9,9.54,31.52,19.64,45.76,31.52,13.13,10.95,25.04,23.39,38.97,33.31,29.35,20.92,67.5,29.48,102.72,21.84,35.22-7.64,66.77-31.74,82.27-64.27,10.67-22.4,13.71-47.56,16.08-72.26,8.09-84.32,10.06-169.15,8.49-253.85-.58-31.38,2.47-64.6,4.45-95.92,2.22-35.12,4.45-70.24,7.7-105.28,1.61-17.28,3.48-34.63,8.23-51.32,4.6-16.18,11.81-31.47,19-46.67,14.5-30.69,29.01-61.39,44.5-91.6,6.78-13.22,18.88-24.02,29.21-34.69,12.53-12.95,25.1-25.95,35.84-40.42,24.55-33.07,49.35-74.46,40.74-114.73-4.51-21.08-5.68-20.88-8-25.29-1.8-3.44-5.32-5.79-6.87-9.35-1.33-3.05-1.54-6.45-1.68-9.77-.41-10.04-.21-20.1.58-30.11.41-5.22,1.07-10.65,3.96-15.01,5.93-8.95,19.49-9.9,28.95-4.8,4.23,2.28,7.96,5.56,10.5,9.64,2.58,4.13,3.87,8.9,5.51,13.48,3.14,8.78,7.66,17.07,13.34,24.47,3.84,5,8.31,9.67,13.88,12.61,5.57,2.94,12.39,3.97,18.24,1.61,5.79-2.34,9.94-7.71,12.23-13.52,2.29-5.81,2.97-12.12,3.63-18.33,1.46-13.86,2.93-27.72,4.39-41.57.59-5.63,1.25-11.45,4.07-16.36,2.82-4.91,8.44-8.69,13.99-7.56,4.16.85,7.32,4.13,11.02,6.21,4.1,2.3-3.04,126.76-2.39,174.27,5.32,389.74,11.47,733.56,2.66,1117.34-2.63,114.76-1.33,138.34-5.32,250.07-681.71,12.64-1236.39,4.66-1923.42,0-5.53-126.32-5.45-234.92,2-361.14Z"/>
  <path class="cls-8" d="m1799.55,302.43c1.41.15,9.27,3.76,9.7,5.06,3.37,10.09,9.34,13.47,19.41,10.68,1.23-.34,2.43-1.17,3.93-1.47,10.28-2.08,16.88,1.33,18.46,11.7,1.19,7.79-5.45,12.51-7.34,20.63-.5,2.16.25,6.65,5.28,7.71,2.2.04,2.57-5.69,2.57-7.44,0-3.16-.06-6.18,1.12-8.87.37-.86.66-1.76.89-2.68,2.08-8.64,4.35-16.16,13.42-11.85,3.28,1.56,7.84,2.62,10.72-.72,3.45-3.99-1.76-6.14-2.95-9.19-2.02-5.19-3.18-10.4.71-15.45,4.22-5.48,10.4-6.79,15.48-3.63,16.26,10.15,30.27-2.44,45.34-3.46.97-.07,3.33-1.57,2.29-3.68-.69-1.4-1.93-2.64-3.83-2.34-3.89.61-7.65-.05-11.78,1.28-21.86,7.05-21.67,6.13-41.34-2.59-11.43-5.07-22.55-23.21-21.22-34.65-11.82-5.77-25.8-6.59-38.66-5.95-4.5.22-9.13.54-13.2,2.73-3.42,1.84-6.2,4.87-8.74,8.05-3.37,4.23-6.46,8.89-8.11,14.27-1.65,5.37-1.72,11.58.73,16.55,2.36,4.78,7.73,9.89,7.15,15.33Z"/>
  <path class="cls-5" d="m1854.62,1039.75c-1.53,5.01-5.68,9.6-10.91,9.96-2.64.19-5.32-.69-7.9-.12-4.02.89-6.43,4.85-9.42,7.68-7.08,6.71-17.84,7.18-27.6,7.26-1.73.01-3.56,0-5.02-.92-1.35-.86-2.15-2.34-2.89-3.76-2.87-5.53-5.75-11.06-8.63-16.6-1.34-2.57-2.83-5.31-5.43-6.61-3.01-1.5-7.43-1.14-8.83-4.2-1.09-2.4.63-5.04,1.64-7.47,1.98-4.77,1.07-10.6-2.26-14.54-1.7-2.02-3.97-3.55-5.4-5.77-1.28-2.01-1.78-4.4-2.58-6.64-2.91-8.15-9.76-14.15-16.34-19.78-4.75-4.05-9.99-8.32-16.23-8.61-6.18-.3-12.81,5.62-10.81,11.42-2.57,1.12-4.28-.3-5.68-4.65-1.37-4.26-1.03-9.06-2.37-13.34-2.99-9.53-6.35-18.95-10.04-28.23-.75-1.86-3.45-3.32-5.57-4.22-6.91-2.93-11.3-8.59-13.28-14.98-4.75-15.33-9.31-30.85-11.93-46.62-1.33-8.01-1.56-15.42-8.17-21.22-2.23-1.96-3.55-5.01-5.05-7.69-2.23-3.99-3.06-9.53-1.13-12.49,5.72-8.79,2.62-16.31-1.02-24.23-1.12-2.43-1.77-5.02.71-7.03,4.04-3.28,1.99-6.27-.8-8.41-4.73-3.63-9.7-7.07-14.95-9.89-6.66-3.58-13.28-8.08-21.47-2.41-2.57,1.78-5.11-1.47-6.21-4.07-1.25-2.94-2.31-6.03-2.86-9.16-2.14-12.15-2.15-24.44-2.23-36.72-.05-7.4-.78-14.75-2.84-21.9-2.27-7.86-3.96-15.77-4.35-24.01-.45-9.24-2.65-17.9-9.8-24.82-3.97-3.84-5.36-9.03-5.17-14.75.21-6.4.22-12.88-2.05-19.07-7.37-20.07-19.59-35.74-40.65-43.03-10.39-3.6-16.81-10.57-17.57-21.26-.5-6.97-.49-14.02.98-21.22,7.28-35.64,26.71-59.78,62.91-70.01,29.49-8.34,59.72-11.57,90.05-14.08,16.11-1.34,32.23.83,47.85,5.47,4.65,1.39,9.78,1.63,14.68,1.57.38,0,.74-.02,1.08-.03-1.34,8.65-2.56,17.36-2.12,26.08.48,9.49,3.06,19.13,8.94,26.59,1.17,1.48,2.47,2.89,3.38,4.55,1.31,2.42,1.7,5.21,2.18,7.92.96,5.45,3.37,11.16,3.95,16.66,1.7,16.28-4.1,32.46-4.02,48.83.03,4.91.59,9.81.41,14.72-.27,7.26.42,15.16-3.52,21.27-2.38,3.7-2.36,8.52-1.19,12.76,1.17,4.25,3.37,8.12,5.15,12.15,2.13,4.8,3.68,9.83,5.23,14.85,3.55,11.55,8.18,23.2,10.56,35.05,1.88,9.33,1.69,19.07-.55,28.32-.74,3.09-1.76,6.21-3.73,8.7-4.39,5.56-12.22,6.68-18.54,9.88-5.52,2.8-8.17,9.16-13.93,11.42-6.41,2.51-7.23,11.23-6.15,18.03,1.08,6.8,2.72,14.64-1.76,19.87-1.31,1.53-3.06,2.67-4.33,4.24-5.08,6.28-.63,15.64-1.92,23.61-.25,1.54-.78,3.13-2.02,4.08-1.35,1.04-3.2,1.07-4.9,1.02-9.38-.28-18.73-1.56-27.85-3.81,1.75,10.45,3.3,22-2.37,30.95-1.43,2.26-3.31,4.3-4.15,6.85-.85,2.54-.23,5.88,2.22,6.98,1.29.58,2.77.41,4.18.23,5.14-.67,10.28-1.33,15.42-1.99,5.66,7.4,5.03,17.85,2.48,26.81-2.09,7.36-4.99,16.19.1,21.9,9.99-1.76,18.22-8.5,26.73-14.02,8.51-5.52,18.93-10.09,28.56-6.91,4.01,1.32,7.56,3.92,11.7,4.77,6.83,1.41,14.21-2.16,20.75.25,2.86,1.05,5.2,3.13,7.46,5.17,9.92,8.92,19.94,17.95,27.53,28.92,6,8.67,10.38,18.44,12.86,28.68.52,2.15.98,4.37,2.16,6.25,1.96,3.11,5.57,4.76,8.15,7.39,4.44,4.53,5.32,11.37,5.98,17.68.99,9.63,1.99,19.27,2.99,28.9.54,5.21,1.06,10.59-.48,15.6Z"/>
  <path class="cls-8" d="m1854.62,1039.75c-1.53,5.01-5.68,9.6-10.91,9.96-2.64.19-5.32-.69-7.9-.12-4.02.89-6.43,4.85-9.42,7.68-7.08,6.71-17.84,7.18-27.6,7.26-1.73.01-3.56,0-5.02-.92-1.35-.86-2.15-2.34-2.89-3.76-2.87-5.53-5.75-11.06-8.63-16.6-1.34-2.57-2.83-5.31-5.43-6.61-3.01-1.5-7.43-1.14-8.83-4.2-1.09-2.4.63-5.04,1.64-7.47,1.98-4.77,1.07-10.6-2.26-14.54-1.7-2.02-3.97-3.55-5.4-5.77-1.28-2.01-1.78-4.4-2.58-6.64-2.91-8.15-9.76-14.15-16.34-19.78-4.75-4.05-9.99-8.32-16.23-8.61-6.18-.3-12.81,5.62-10.81,11.42-2.57,1.12-4.28-.3-5.68-4.65-1.37-4.26-1.03-9.06-2.37-13.34-2.99-9.53-6.35-18.95-10.04-28.23-.75-1.86-3.45-3.32-5.57-4.22-6.91-2.93-11.3-8.59-13.28-14.98-4.75-15.33-9.31-30.85-11.93-46.62-1.33-8.01-1.56-15.42-8.17-21.22-2.23-1.96-3.55-5.01-5.05-7.69-2.23-3.99-3.06-9.53-1.13-12.49,5.72-8.79,2.62-16.31-1.02-24.23-1.12-2.43-1.77-5.02.71-7.03,4.04-3.28,1.99-6.27-.8-8.41-4.73-3.63-9.7-7.07-14.95-9.89-6.66-3.58-13.28-8.08-21.47-2.41-2.57,1.78-5.11-1.47-6.21-4.07-1.25-2.94-2.31-6.03-2.86-9.16-2.14-12.15-2.15-24.44-2.23-36.72-.05-7.4-.78-14.75-2.84-21.9-2.27-7.86-3.96-15.77-4.35-24.01-.45-9.24-2.65-17.9-9.8-24.82-3.97-3.84-5.36-9.03-5.17-14.75.21-6.4.22-12.88-2.05-19.07-7.37-20.07-19.59-35.74-40.65-43.03-10.39-3.6-16.81-10.57-17.57-21.26-.5-6.97-.49-14.02.98-21.22,7.28-35.64,26.71-59.78,62.91-70.01,29.49-8.34,59.72-11.57,90.05-14.08,16.11-1.34,32.23.83,47.85,5.47,4.65,1.39,9.78,1.63,14.68,1.57.38,0,.74-.02,1.08-.03-1.34,8.65-2.56,17.36-2.12,26.08.48,9.49,3.06,19.13,8.94,26.59,1.17,1.48,2.47,2.89,3.38,4.55,1.31,2.42,1.7,5.21,2.18,7.92.96,5.45,3.37,11.16,3.95,16.66,1.7,16.28-4.1,32.46-4.02,48.83.03,4.91.59,9.81.41,14.72-.27,7.26.42,15.16-3.52,21.27-2.38,3.7-2.36,8.52-1.19,12.76,1.17,4.25,3.37,8.12,5.15,12.15,2.13,4.8,3.68,9.83,5.23,14.85,3.55,11.55,8.18,23.2,10.56,35.05,1.88,9.33,1.69,19.07-.55,28.32-.74,3.09-1.76,6.21-3.73,8.7-4.39,5.56-12.22,6.68-18.54,9.88-5.52,2.8-8.17,9.16-13.93,11.42-6.41,2.51-7.23,11.23-6.15,18.03,1.08,6.8,2.72,14.64-1.76,19.87-1.31,1.53-3.06,2.67-4.33,4.24-5.08,6.28-.63,15.64-1.92,23.61-.25,1.54-.78,3.13-2.02,4.08-1.35,1.04-3.2,1.07-4.9,1.02-9.38-.28-18.73-1.56-27.85-3.81,1.75,10.45,3.3,22-2.37,30.95-1.43,2.26-3.31,4.3-4.15,6.85-.85,2.54-.23,5.88,2.22,6.98,1.29.58,2.77.41,4.18.23,5.14-.67,10.28-1.33,15.42-1.99,5.66,7.4,5.03,17.85,2.48,26.81-2.09,7.36-4.99,16.19.1,21.9,9.99-1.76,18.22-8.5,26.73-14.02,8.51-5.52,18.93-10.09,28.56-6.91,4.01,1.32,7.56,3.92,11.7,4.77,6.83,1.41,14.21-2.16,20.75.25,2.86,1.05,5.2,3.13,7.46,5.17,9.92,8.92,19.94,17.95,27.53,28.92,6,8.67,10.38,18.44,12.86,28.68.52,2.15.98,4.37,2.16,6.25,1.96,3.11,5.57,4.76,8.15,7.39,4.44,4.53,5.32,11.37,5.98,17.68.99,9.63,1.99,19.27,2.99,28.9.54,5.21,1.06,10.59-.48,15.6Z"/>
  <path class="cls-1" d="m1854.62,1039.75c-1.53,5.01-5.68,9.6-10.91,9.96-2.64.19-5.32-.69-7.9-.12-4.02.89-6.43,4.85-9.42,7.68-7.08,6.71-17.84,7.18-27.6,7.26-1.73.01-3.56,0-5.02-.92-1.35-.86-2.15-2.34-2.89-3.76-2.87-5.53-5.75-11.06-8.63-16.6-1.34-2.57-2.83-5.31-5.43-6.61-3.01-1.5-7.43-1.14-8.83-4.2-1.09-2.4.63-5.04,1.64-7.47,1.98-4.77,1.07-10.6-2.26-14.54-1.7-2.02-3.97-3.55-5.4-5.77-1.28-2.01-1.78-4.4-2.58-6.64-2.91-8.15-9.76-14.15-16.34-19.78-4.75-4.05-9.99-8.32-16.23-8.61-6.18-.3-12.81,5.62-10.81,11.42-2.57,1.12-4.28-.3-5.68-4.65-1.37-4.26-1.03-9.06-2.37-13.34-2.99-9.53-6.35-18.95-10.04-28.23-.75-1.86-3.45-3.32-5.57-4.22-6.91-2.93-11.3-8.59-13.28-14.98-4.75-15.33-9.31-30.85-11.93-46.62-1.33-8.01-1.56-15.42-8.17-21.22-2.23-1.96-3.55-5.01-5.05-7.69-2.23-3.99-3.06-9.53-1.13-12.49,5.72-8.79,2.62-16.31-1.02-24.23-1.12-2.43-1.77-5.02.71-7.03,4.04-3.28,1.99-6.27-.8-8.41-4.73-3.63-9.7-7.07-14.95-9.89-6.66-3.58-13.28-8.08-21.47-2.41-2.57,1.78-5.11-1.47-6.21-4.07-1.25-2.94-2.31-6.03-2.86-9.16-2.14-12.15-2.15-24.44-2.23-36.72-.05-7.4-.78-14.75-2.84-21.9-2.27-7.86-3.96-15.77-4.35-24.01-.45-9.24-2.65-17.9-9.8-24.82-3.97-3.84-5.36-9.03-5.17-14.75.21-6.4.22-12.88-2.05-19.07-7.37-20.07-19.59-35.74-40.65-43.03-10.39-3.6-16.81-10.57-17.57-21.26-.5-6.97-.49-14.02.98-21.22,7.28-35.64,26.71-59.78,62.91-70.01,29.49-8.34,59.72-11.57,90.05-14.08,16.11-1.34,32.23.83,47.85,5.47,4.65,1.39,9.78,1.63,14.68,1.57.38,0,.74-.02,1.08-.03-1.34,8.65-2.56,17.36-2.12,26.08.48,9.49,3.06,19.13,8.94,26.59,1.17,1.48,2.47,2.89,3.38,4.55,1.31,2.42,1.7,5.21,2.18,7.92.96,5.45,3.37,11.16,3.95,16.66,1.7,16.28-4.1,32.46-4.02,48.83.03,4.91.59,9.81.41,14.72-.27,7.26.42,15.16-3.52,21.27-2.38,3.7-2.36,8.52-1.19,12.76,1.17,4.25,3.37,8.12,5.15,12.15,2.13,4.8,3.68,9.83,5.23,14.85,3.55,11.55,8.18,23.2,10.56,35.05,1.88,9.33,1.69,19.07-.55,28.32-.74,3.09-1.76,6.21-3.73,8.7-4.39,5.56-12.22,6.68-18.54,9.88-5.52,2.8-8.17,9.16-13.93,11.42-6.41,2.51-7.23,11.23-6.15,18.03,1.08,6.8,2.72,14.64-1.76,19.87-1.31,1.53-3.06,2.67-4.33,4.24-5.08,6.28-.63,15.64-1.92,23.61-.25,1.54-.78,3.13-2.02,4.08-1.35,1.04-3.2,1.07-4.9,1.02-9.38-.28-18.73-1.56-27.85-3.81,1.75,10.45,3.3,22-2.37,30.95-1.43,2.26-3.31,4.3-4.15,6.85-.85,2.54-.23,5.88,2.22,6.98,1.29.58,2.77.41,4.18.23,5.14-.67,10.28-1.33,15.42-1.99,5.66,7.4,5.03,17.85,2.48,26.81-2.09,7.36-4.99,16.19.1,21.9,9.99-1.76,18.22-8.5,26.73-14.02,8.51-5.52,18.93-10.09,28.56-6.91,4.01,1.32,7.56,3.92,11.7,4.77,6.83,1.41,14.21-2.16,20.75.25,2.86,1.05,5.2,3.13,7.46,5.17,9.92,8.92,19.94,17.95,27.53,28.92,6,8.67,10.38,18.44,12.86,28.68.52,2.15.98,4.37,2.16,6.25,1.96,3.11,5.57,4.76,8.15,7.39,4.44,4.53,5.32,11.37,5.98,17.68.99,9.63,1.99,19.27,2.99,28.9.54,5.21,1.06,10.59-.48,15.6Z"/>
  <g>
    <path class="cls-7" d="m1871.05,258.67c-3.33,7.48-10.62,10.17-18.99,10.1-5.46-.05-10.93.88-16.4,1.29-2.35.18-5.74-.65-6.14,2.18-.28,1.97,2.31,3.98,4.71,4.91,2.39.92,4.8,1.79,7.13,2.84,3.48,1.57,8.38,3.3,8.19,7.03-.23,4.59-5.65,5.84-9.64,6.96-3.65,1.02-7.56,1.21-11.38,1.49-5.12.39-9.32,1.07-11.72,6.98-1.33,3.29-5.49,6.08-9.02,7.75-12.49,5.94-18.43,15.41-19.34,29.09-.93,13.94-5.82,26.67-17,35.97-6.39,5.31-9.41,11.92-9.88,19.85-.42,6.92-5.81,13.12-2.9,20.49.08.2.1.61-.01.68-7.92,5.21-5.06,16.03-11.46,21.84-4,3.62-3.78,7.59-2.8,12.09,1.37,6.3.51,8.09-5.32,8.34-.34.01-.7.02-1.08.03-4.9.06-10.03-.18-14.68-1.57-15.62-4.64-31.74-6.81-47.85-5.47-30.33,2.51-60.56,5.74-90.05,14.08-36.2,10.23-55.63,34.37-62.91,70.01-1.47,7.2-1.48,14.25-.98,21.22.76,10.69,7.18,17.66,17.57,21.26,21.06,7.29,33.28,22.96,40.65,43.03,2.27,6.19,2.26,12.67,2.05,19.07-.19,5.72,1.2,10.91,5.17,14.75,7.15,6.92,9.35,15.58,9.8,24.82.39,8.24,2.08,16.15,4.35,24.01,2.06,7.15,2.79,14.5,2.84,21.9.08,12.28.09,24.57,2.23,36.72.55,3.13,1.61,6.22,2.86,9.16,1.1,2.6,3.64,5.85,6.21,4.07,8.19-5.67,14.81-1.17,21.47,2.41,5.25,2.82,10.22,6.26,14.95,9.89,2.79,2.14,4.84,5.13.8,8.41-2.48,2.01-1.83,4.6-.71,7.03,3.64,7.92,6.74,15.44,1.02,24.23-1.93,2.96-1.1,8.5,1.13,12.49,1.5,2.68,2.82,5.73,5.05,7.69,6.61,5.8,6.84,13.21,8.17,21.22,2.62,15.77,7.18,31.29,11.93,46.62,1.98,6.39,6.37,12.05,13.28,14.98,2.12.9,4.82,2.36,5.57,4.22,3.69,9.28,7.05,18.7,10.04,28.23,1.34,4.28,1,9.08,2.37,13.34,1.4,4.35,3.11,5.77,5.68,4.65,1.01-.44,2.15-1.28,3.46-2.49,4.67-4.3,6.27-3.76,9.33,2.09,4.35,8.34.64,15.65-3.05,22.57-5.19,9.71-5.54,9.68,2.26,16.33,1.77,1.52,4.14,2.99,4.87,4.98,3.91,10.64,13.12,11.61,22.23,11.76,5.62.1,7.65,2.79,8.51,7.27,1.96,10.17-5.93,24.95-14.96,27.4-3.82,1.04-8.21,1.45-12.05.69-12.15-2.43-24.34-1.82-36.36-.34-10.41,1.28-11.92,5.85-13.36,13.95-.67,3.76-1.29,7.28-4.55,9.03-4.85,2.59-3.15,6.64-2.6,9.97.53,3.21,2.6,6.19,4.1,9.21,4.43,8.97,4.18,12.86-2.25,18.98-1.86,1.78-4.62,2.07-7.77,1.75-5.85-.59-12.17-.86-17.72.72-9.32,2.64-11.57,11.35-13.56,19.54-1.21,5-1.52,9.75,2.67,14.23,4.09,4.38,2.18,10.78,3.4,16.2.61,2.73-3.65,4.38-6.17,5.48-15.73,6.87-18.33,14.26-10.05,28.42,1.26,2.14,1.53,5.13,1.44,7.7-.15,4.29-3.63,6.05-6.98,3.48-8.38-6.4-18.02-10.03-27.84-13.38-5.81-1.98-11.97.47-17.88-1.99-8.94-3.73-19.03-3.56-27.87-8.37-5.12-2.79-8.84-5.76-7.46-11.46.65-2.66-1.07-4.19-1.66-4.11-5.65.79-10.63-3.96-16.44-1.65-5.29,2.1-7.96-.7-8.47-5.61-.51-5-2.9-7.95-7.91-8.43-5.24-.5-8.93,2.62-9.79,7.06-1.97,10.16-8.52,15.93-17.35,19.61-3.48,1.46-5.29,4.28-7.72,6.56-4.2,3.94-5.25,3.88-7.2-1.48-2.3-6.34-4.04-6.6-8.57-1.43-1.84,2.1-3.73,3.55-7.09,3.81-3.47.26-8.3.46-8.62,6.09-.11,2.04-2.1,1.72-3.51,2.15-6.62,2.03-9.12,6.93-9.28,13.4-.07,2.99.43,6.11-4.26,6.44-4.51.31-6.45-2.01-7.05-5.75-.35-2.19-.56-4.38-2.96-4.84-2.3-.44-2.58,1.77-3.71,3.32-5.33,7.31-11.46,6.82-16.12-1.35-2.5-4.38-3.99-9.33-5.8-14.08-3.68-9.66-6.65-11.45-17.12-10.65-2.54.19-5.1-.04-7.59-.65-5.28-1.3-10.15-2.31-15.97-1.94-8.04.5-14.51-5.47-19.18-12.2-3.53-5.09-5.26-10.81-6.64-16.89-1.87-8.23-5.11-16.21-11.97-21.89-3.28-2.71-2.54-6.3-1.93-9.2,2.16-10.28,2.23-11.1-6.11-15.3-4.6-2.32-8.62-6.09-11.06-11.08-2.68-5.51-7.8-8.25-14.36-8.3-3.09-.02-6.17-.45-9.27-.67-9.73-.68-11.25-2.86-7.78-11.99,1.57-4.13,3.38-8.26,5.74-11.97,3.33-5.25,5.45-10.88,1.87-16.19-3.98-5.88-11.63-7.4-17.54-6.03-7.04,1.64-13.99-.25-20.81,1.55-1.44.38-3.44-.54-4.93-1.34-3.3-1.77-5.7-3.42-10.22-1.04-3.74,1.98-7.49-2.24-9.76-5.97-2.87-4.7-5.7-9.42-8.57-14.12-1.16-1.9-2.16-3.94-3.59-5.63-7.16-8.45-10.03-8.55-18.49-.72-3.4,3.15-6.86,1.98-9.93-.1-2.89-1.96-5.28-4.63-7.9-6.98-2.37-2.12-4.43-5.37-7.19-6.14-8.1-2.28-11.26-6.78-10.08-15.07.44-3.07-2.52-3.77-5.52-4.34-9.33-1.77-18.59-3.98-27.81-6.29-3.99-1.01-4.95-3.84-3.61-7.72,2.77-8.01,2.15-9.6-4.97-13.4-3.55-1.89-7.2-3.39-11.39-3.61-6.43-.33-10.96-3.34-12.87-9.81-1.55-5.23-4.38-9.91-8.6-13.34-3.19-2.6-7.5-3.77-11.25-1.4-4.42,2.81-2.46,7.2-.66,10.42,3.64,6.51,6.71,13.07,7.84,20.53.37,2.47.72,4.64-.07,7.1-1.95,6.11-6.69,8.09-10.58,3.38-5.96-7.23-11.97-14.61-11.12-25.31.37-4.59-1.73-9.54-3.42-14.06-1.4-3.73-5.57-3.72-8.36-2.67-3.41,1.29-6.79,1.61-10.03,1.06-4.51-.75-8.24-.98-10.78,3.65-.78,1.42-2.17,2.17-4.21,2.25-7.66.29-11.08,2.63-11.92,10.52-1.08,10.15-7.04,15.24-15.91,17.53-14.55,3.77-28.59,8.39-40.64,17.72-3.09,2.4-5.98.12-8.49-1.42-8.99-5.53-14.63-4.43-20.79,3.52-3.57,4.6-8,8.53-12.03,12.78-1.6,1.68-2.46.22-3.58-.69-4.96-4.02-9.69-1.97-13.42,1.51-3.73,3.5-6.01,3.78-8.71-.8-3.29-5.55-8.33-5.09-12.69-2.01-4.62,3.26-10.58,5.03-13.04,11.13-1.64,4.07-6.52,3.72-9.93,4.77-5.03,1.55-6.4,3.47-5.16,8.74.95,4,1.37,8.44-1.06,12.74-2.61,4.61-5.53,6.58-10.85,4.94-3.45-1.07-7.08-1.82-10.67-2.11-5.76-.48-7.85-3.21-5.66-8.54,1.69-4.09,3.85-7.98,5.64-12.03,3.58-8.1,4.46-16.81,5.72-25.42,1.49-10.13,6.26-18.82,11.29-27.62,11.94-20.88,15.54-42.67,8.26-66.42-4.72-15.35-3.17-31.52.42-47.23,2.33-10.17,9.86-16.16,17.77-21.96,4.05-2.97,8.19-6.1,11.35-9.92,8.79-10.63,6.94-25.03-4.98-33.69-14.11-10.25-30.71-15.59-47.71-18.22-16.46-2.56-28.23,11.15-26.75,27.96.46,5.23-.28,10.06-1.25,14.81-.88,4.27-3.46,8.07-4.36,12.7-1.03,5.35-6.32,7.45-11.79,7.07-7.62-.53-13.35,2.22-18.65,7.72-9.59,9.96-15.83,9.38-24.03-2.08-4.8-6.7-8.95-13.91-12.82-21.18-2.75-5.15-5.16-9.63-12.24-7.04-3.26,1.19-5.61-1.31-7.74-2.9-4.13-3.09-7.92-4.9-12.2-.59-2.95,2.97-5.78,1.34-7.75-.8-3.42-3.71-6.22-7.97-9.38-11.91-2.29-2.86-3.98-4.11-7.27-.15-6.87,8.27-13.14,8.33-18.9-.69-11.66-18.22-22.42-37.05-20.89-59.93.21-3.04-.21-6.14.07-9.17,1.18-12.39-2.76-21.45-14.93-27.03-10.05-4.6-14.28-13.8-15.02-24.54-.11-1.59.34-3.63-1.49-4.07-.96-.24-2.42,1.14-3.51,1.98-1.05.81-1.87,1.91-2.88,2.78-1.64,1.43-2.97,4.18-5.64,2.75-2.58-1.38-2.89-4.19-2.93-6.97-.17-11.54-.18-23.09-.8-34.61-.3-5.68-1.81-11.3-2.73-16.96-1.21-7.39,1.65-10.43,9.26-9.89,5.26.38,7.93-3.11,5.64-7.74-1.59-3.21-3.66-6.2-5.68-9.19-.89-1.32-.99-2.31.02-3.57,1.76-2.2,5.56,1.56,6.41,2.17.81.57,1.35,1.53,2.18,2.06,3.34,2.17,20.57-2.1,22.78-5.63,2-3.18,4.71-4.64,8.57-4.28,2.83.26,5.7.1,8.55.04,4.71-.11,7.97-2.74,8.37-7.07.39-4.33-2.35-7.6-6.95-8.42-4.96-.89-9.95-1.66-14.97-2.1-4.76-.42-9.5-.05-14.3-1.27-3.43-.88-7.29.37-9.91,3.34-3.29,3.72-7.44,3.54-11.38,2-4.35-1.69-8.74-2.22-12.81-.45-3.6,1.57-5.34-.62-7.11-2.35-2.4-2.34.05-4.44,1.38-6.25,6.78-9.27-2.69-5.22-8.87-11.98-6.22-6.8.73-16.97,8.35-8.07.68.87,1.15,1.83,1.57,2.84,1.43,3.4,3.73,6.24,6.62,8.13.29.19.56.39.82.61,1.94,1.67,3.74,3.13,6.46,1.4,2.43-1.54,3.06-3.83,2.78-6.37-.21-1.91-1.17-4.78-1.47-5.55-4.04-10.27-10.38-17.35-16.3-25.53-5.12-7.08-8.85-14.79-10.65-23.32-1.1-5.18,1.42-10.12,5.64-9.67,7.35.79,14.17-2.67,21.41-1.64,4.36.62,7.95-1.09,10.62-4.28,1.67-2,4.55-4.32,3.44-6.93-1.38-3.22-5.25-3.53-8.34-2.83-19.95,4.55-32.3-10.64-37.85-25.49-1.21-3.24-.6-5.1,2.9-5.65,6.54-1.03,6.53-.99,5-7.79-.53-2.34-.74-4.77-1.47-7.05-2.94-9.1-1.73-10.73,7.87-9.87,4.91.43,8.79-.27,8.55-6.39-.2-4.99,3.38-4.15,6.43-4.24,6.32-.19,5.5-.83,4.57-7.1-1.61-10.83-5.09-20.87-8.62-31.12-3.35-9.73-3.98-19.86,1.75-29.68,3.13-5.37,3.27-6.07,8.71-2.73,8.06,4.94,10.97,4.73,17.81-1.43,1.74-1.56,3.34-3.28,5-4.93,8-7.88,7.95-7.82,16.42-.73,3.98,3.33,8.07,3.63,12.88.85,5.04-2.91,3.52-7.09,2.64-10.68-2.05-8.34-.66-11.89,7.29-14.08,3.43-.95,7.1-1.32,10.67-1.44,9.99-.32,20.18,1.16,29.89-1.65,5.71-1.65,11.26-2.65,17.16-2.69,8.6-.06,16.77,2.01,24.96,4.25,7.12,1.95,12.25-2.53,11.37-9.85-1.13-9.41-5.52-17.25-12.08-24.04-4.2-4.34-7.66-9.14-7.86-15.52-.19-6.17,1.74-8.33,7.85-8.46,11.45-.24,19.97,5.24,26.31,14.15,4.98,7,11.35,10.45,20.02,9.89,5.75-.38,6.21-1.56,4.39-7.14-1.98-6.11-6.91-9.62-10.71-14.17-1.5-1.8-4.05-3.58-2.33-7.03,2.02-4.08,5.42-1.86,7.13-1.14,5.79,2.42,10.95,1.12,15.73-1.72,9.35-5.55,18.56-10.36,16.94-24.7-1.12-9.9,4.72-16.73,16.61-15.5,5.38.56,10.45,2.15,14.93,5.02,5.86,3.76,11.29,8.19,17.19,11.88,5.95,3.73,10.66,2.81,14.21-2.05,3.97-5.42,5.72-5.57,10.72-1.44,4.16,3.44,8.26,7.12,12.95,9.65,1.69.91,5.34,1.64,7.87-1.72,2.64-3.5.66-5.97-1.03-7.77-3.06-3.28-6.98-5.78-10.55-8.61h1.43c6.18-.94,12.34-2.44,18.54-2.61,3.61-.1,6.33,2.78,8.69,6.04,4.6,6.37,10.76,8.39,16.25,6.46,8.28-2.9,11.41-9.98,8.57-19.07-2.51-8.04-5.96-15.59-10.66-22.63-4.39-6.58-4.07-13.4-.12-17.69,1.73-1.88,3.55-2.03,5.78-2.1,9.9-.29,18.68,5.57,21.27,14.9.86,3.09,1.56,5.44,5.08,6.41,2.94.81,2.87,3.87,3.61,6.27,2.49,8.13,11.23,12.81,18.37,8.26,13.2-8.4,24.82-4.92,36.46,2.4,4.02,2.53,8.68,6.13,12.65,3.19,5.14-3.79,1.83-9.62.18-14.54-.5-1.48-1.66-2.77-2.04-4.26-.63-2.43.2-4.97,2.19-6.16,1.01-.6,3.49.37,4.82,1.3,3.62,2.53,4.72,6.74,6.52,10.5,2.44,5.12,4.84,5.72,8.46,2.09,2.36-2.36,3.77-6.76,7.16-6.69,2.89.07,5.77,2.9,8.56,4.64,11.57,7.22,24.56,8.55,37.78,9.22,5.91.3,7.58-4.14,9.96-7.84,2.88-4.47,6.34-7.59,12.14-7.89,2.65-.14,5.29-1.61,7.83-2.72,5.23-2.27,6.79-5.43,4.47-11.34-4.63-11.78-8.3-23.93-12.25-35.97-.58-1.77-.4-3.78-.79-5.63-.43-2.08.76-3.61,2.22-4.11,1.83-.65,2.83,1.01,3.54,2.68,3.21,7.63,8.82,12.24,17.06,14.25,5.73,1.39,9.1,6.42,12.77,10.55,3.28,3.7,6.31,7.1,11.44,8.56,4.12,1.17,7.27.12,9.95-2.35,2.62-2.41,2.6-5.09,1.98-9.17-1.51-9.8-2.55-19.56-6.11-28.92-.47-1.23-.24-2.82-.04-4.21.64-4.39,1.45-9.09,6.42-10.47,4.84-1.35,7.91,1.77,10.73,5.47,5.5,7.21,5.87,15.75,7.01,24.08,1.2,8.77,3.2,17.21,9.35,23.97,4.22,4.63,9.4,4.08,12.73-1.42,2.31-3.81,3.71-8.08,3.64-12.67-.04-2.59-.42-5.26.07-7.75,1.09-5.56,4.1-6.26,8.53-2.92,4.95,3.73,6.44,9.6,9.75,14.32,1.66,2.36,2.63,5.38,5.84,4.66,2.67-.6,3.51-3.29,4.62-6.07,1.84-4.65.5-9.08,1.07-13.55.2-1.56-.31-3.55,1.52-4.1.95-.28,2.78.48,3.43,1.35,1.91,2.52,4.33,3.05,7.22,2.76,5.93-.58,11.61,1.29,14.79,5.77,8.86,12.49,21.21,13.18,34.38,11.09,13.58-2.15,24.97,2.54,34.8,10.86,5.67,4.8,11.18,7.73,18.68,6.95,5.19-.54,9.37,2.21,13.56,4.85,8.67,5.47,17.67,9.27,28.51,8.77,6.17-.28,10.53-2.51,12.6-7.41,2.32-5.51,4.8-5.97,10.25-4.33,13.3,3.98,23.73,12.69,34.72,20.18,14.18,9.67,27.23,20.98,40.79,31.56,7.52,5.87,16.04,8.68,25.65,9.27,21.13,1.3,41.86-2.4,62.74-4.26,27.6-2.46,54.82-.22,81.23,8.49,8.18,2.7,16.48,4.31,24.98,4.07,17.32-.49,34.26,1.36,50.59,7.21,11.65,4.17,23.69,3.67,35.66,3.31,4.99-.16,9.79-2.1,13.62-6.12,6.68-7.01,13.78-13.6,17.78-22.66.47-1.05,1.36-1.93,2.11-2.83,5.75-6.92,6.31-7.08,13.51-.68,11.14,9.89,22.83,19.27,32.07,31.07,4.68,5.96,9.64,12.65,6.2,20.35Z"/>
    <path class="cls-7" d="m116.25,734.1c4.99,9.42,10.17,18.74,14.87,28.3,1.63,3.31,2.73,7.21,5.89,8.99,5.82,3.28,6.76,9.44,9.78,14.34.54.88,2.82,3.38-.6,4.14-5.81,1.29-3.37,4.65-2.15,7.8.61,1.57,2.43,2.95.75,4.95-1.75,2.09-3.68,1.54-5.72.69-1.18-.49-2.35-1.25-3.57-1.34-1.4-.1-2.85.39-4.27.63.24,1.18.36,2.39.75,3.52.27.78,1,1.39,1.37,2.14,1.04,2.1,2.46,3.98.08,6.41-2.9,2.97-5.72.6-7.79-.33-1.99-.89-2.59-4.43-4.5-5.97-2.28-1.85-4.57-5.97-8.44-2.22-3.83,3.71.14,5.54,2.14,7.74,1.57,1.73,3.19,3.45,5.01,4.92,1.52,1.22,1.71,2.73,1.34,4.27-.61,2.49-2.65,3.12-4.93,2.81-2.63-.35-5.22-1.03-7.85-1.35-2.39-.29-5.1-2.16-7.09.69-1.58,2.25-.69,4.67-.04,7.05,1.43,5.19,4.91,9.19,8.66,12.61,7.09,6.46,16.6,8.93,24.94,13.36,1.75.93,4.75.03,7.02-.6,8.54-2.35,12.63-.4,14.94,7.84,1.23,4.4,1.84,8.96,2.93,13.4,1.51,6.15,4.55,11.33,14.23,11.36,4.44.01,8.6.62,12.23,4.08,3.39,3.23,7.97,5.09,12.73,5.72,8.36,1.11,11.41,8.03,5.06,14.96-6.89,7.52-12.26,15.96-12.3,26.77,0,1.65-1.15,3.4-2.08,4.92-1.72,2.81-3.92,3.49-6.36.72-.56-.63-.9-1.45-1.45-2.1-6.34-7.6-10.56-6.86-14.18,2.84-2.24,6-4.04,12.17-5.71,18.36-1.28,4.73-3.82,8.66-6.11,12.89-4.54,8.39-11.89,16.07-10.96,26.64.38,4.29,1.17,8.76,2.9,12.66,2.98,6.7,10.75,8.49,16.92,4.24,2.88-1.98,5.92-4.23,7.77-7.08,5.65-8.7,14.49-13.19,22.94-18.28,7.11-4.28,7.66-5.48,4.96-13.42-1.92-5.67-2.14-11.04,1.42-16.27,3.46-5.09,5-10.68,4.37-16.94-.7-7.02,5.29-12.15,5.84-19.05.27-3.39,2.3-6.82,4.16-9.86,3.26-5.32,2.9-11.27,1.12-16.21-7.35-20.39,5.19-30.01,22.36-35.3,3.82-1.18,8.19-.55,12.06-1.62,8.56-2.36,16.3-6.09,22.23-13.24,4.85-5.85,5.31-5.43,7.82,2.01.82,2.43,1.44,7.44,5.64,2.15.62-.78,1.51-1.35,2.11-2.14,3.27-4.34,5.43-5.37,8.77.61,4.44,7.95,10.39,7.47,15.43-.62,4.11-6.6,5.76-8.77,11.35-.61,4.45,6.48,11.17,8.46,17.96,10.4,2.31.66,4.92.46,7.21-1.88,2.9-2.97.08-4.61-.92-6.42-1.8-3.24-4.52-6-6.23-9.28-1.81-3.48-2.97-7.69-.67-11.17,2.58-3.9,6.9-2.44,10.54-1.43,2.95.82,5.76,2.2,8.57,3.47,8.9,4.04,13.2,1.17,15.76-7.77,1.04-3.64,1.56-7.45,4.13-10.68,2.84-3.57,5.3-5.59,10.13-2.89,4.22,2.36,7.64-.02,10.67-3.37,6.34-7,7.09-15.39,6.23-24.05-.29-2.97-.87-5.48,1.54-7.8,3.44-3.31,6.39-.77,9.26.77,5.66,3.03,10.85,7.44,17.88,2.84,5.55-3.64,8.24-8.02,7.19-14.9-1.45-9.52.48-11.77,9.88-13.41,9.33-1.62,12.2-5.68,12.32-15.54.03-2.53-.87-6.73,3.38-7.71,3.49-.81,7.03.04,8.41,3.52,1.46,3.69,3.8,6.5,6.56,9.12,2.36,2.24,4.05,2.39,5.04-1.38,1.24-4.73,3.97-5.64,7.77-2.82,3.39,2.51,6.62,5.23,10.01,7.73,2.71,2,4.69.22,4.83-2.11.34-5.4.8-10.8-3.35-15.6-9.49-10.98-22.69-14.75-35.72-18.99-1.86-.6-3.79-.96-5.7-1.43-4.87-1.19-6.99-4.28-6.41-9.18.89-7.52-2.33-14.33-8.68-16.62-14.53-5.25-25.11-15.34-36.34-24.94-2.87-2.45-7.02-4.78-10.59-4.79-7.87-.01-14.47-3.15-21.4-5.89-12.04-4.76-20,1.27-22.78,11.97-1.03,3.98-1.57,8.12-2.94,11.98-2.05,5.75-5.54,6.62-9.88,2.83-.87-.76-1.42-1.88-2.17-2.8q-5.29-6.53-11.4-1.42c-8.02,6.72-13.2,5.81-18.48-3.56-2.43-4.31-4.62-8.81-6.36-13.43-1.15-3.06-2.83-5.47-5.06-7.76-4.14-4.26-9.32-3.78-10.56,3.59-1.79,10.66-7.99,17.86-16.64,23.16-5.49,3.36-12.24,2.54-18.46,2.84-6.96.34-13.84.03-20.04,4.23-1.84,1.25-4.66,1.39-7.05,1.45-3.09.08-6.42.02-6.97,3.64-.43,2.8-.77,5.73,1.87,8.56,6.62,7.09,7.02,18.83,1.54,25.32-3.92,4.63-10.35,5.46-12.51.57-2.63-5.96-7.76-11.41-6.13-18.95.56-2.59.67-6.19-3.46-6.22-3.23-.03-4.54,2.41-4.27,5.54.71,8.43-2.89,13.06-11.33,15.78-9.56,3.08-12.23,11.85-12.84,20.95-.37,5.63.26,11.33-.23,16.93-.21,2.39-.54,5.71-4.12,6.36-2.57.47-4.18-1.29-5.67-2.84-5.27-5.47-8.42-12.2-11.48-19.02-3.11-6.92-6.73-13.62-9.89-20.53-2.06-4.52-5.74-6.47-9.94-4.72-3.96,1.65-6.34-1.12-9.3-1.82-4.68-1.1-5.65.2-5.07,4.45,1.48,10.7-.47,12.37-6.39,14.12h0Z"/>
    <path class="cls-7" d="m188.03,488.32c-3.24-1.05-6.48-2.06-9.8-2.69-3.4-.64-7.12.15-10.66.59-3.72.47-6.33,3.05-6.94,6.35-.51,2.77,2.16,4.44,4.77,5.66,9.74,4.51,18.74,10.13,27.18,16.82,8.3,6.57,19.09,6.94,28.27-.12,3.79-2.91,7.11-3.42,9.96-.99,2.21,1.88,4.32,1.02,5.05.35,4.04-3.72,8.54-5.34,13.64-3.31,5.85,2.33,9.91,6.86,12.06,12.67,1.5,4.03,3.14,7.89,5.81,11.26,4.09,5.17,4.19,10.99,2.8,16.96-2.15,9.2-1.93,17.55,7.15,23.33,2.29,1.46,3.12,3.53,2.92,6.35-.49,6.82,1.14,13.57.07,20.5-1.69,10.9,6.13,17.34,19.85,18.04,24.21,1.23,29.4-5.51,38.47-24.42,1.46-3.04,2.94-6.08,4.26-9.19,1.93-4.54,4.1-9.03,1.48-14.13-2.35-4.57.13-7.99,3.59-10.5,3.25-2.35,6.03-.24,8.5,2.03,2.59,2.38,5.38,4.57,7.8,7.1,3.93,4.11,7.59,4.68,12.25.79,2.61-2.17,4.81-5.16,9.16-5.26,3.43-.08,2.83-3.63,2.86-6.16.15-11.01.14-11.09,10.7-13.35,1.92-.41,2.79-1.27,3.62-2.86.59-1.13,2.44-2.88,2.69-2.72,5.53,3.43,6.67-.48,8.31-3.51.85-1.58,2.57-2.29,4.14-1.75,3.62,1.26,7.18,2.95,11.15,2.23,2.75-.5,3.51,1.57,5.06,2.81.91.73,1.28,3.51,3.51,1.5,1.7-1.53,3.79-3.09,2.77-5.63-1.37-3.41-3.08-6.72-4.96-9.9-3.89-6.57-4.75-13.35-2.1-20.55,1-2.71,1.07-5.77-.04-8.42-2.13-5.09-4.85-5.77-9.21-2.1-7.49,6.3-7.32,4.01-11.27-1.55-4.35-6.12-8.13-12.73-6-21.12,1.21-4.75-2.77-8.84-8.42-9.06-6.53-.26-12-2.26-16.43-7.12-1.45-1.58-3.07-3.17-5.67-2.88-6.37.71-11.93-1.05-17.23-4.75-1.86-1.3-5.1-.72-7.72-.86-7.9-.41-9.38-3.33-12.46-10.47-3.48-8.08-6.06-15.53-3.36-24.2.27-.88-1.15-3.21-2.03-3.35-6.37-.97-12.8-1.64-19.23-2.23-3.5-.32-3.82,2.78-4.16,4.93-.47,2.99-.62,6.2-.03,9.15,2.83,14.2-2.09,15.88-15.06,17.66-2.6.36-5.33.11-7.82.8-4.83,1.34-7.76,4.34-7.17,9.81.44,4.11-.37,7.28-5.68,7.1-5.04-.17-6.36,1.79-3.65,6.37,1.22,2.06,1.75,4.62,2.17,7.02.78,4.45-1.78,6.93-5.55,4.76-5.29-3.05-5.41.71-6.51,3.71-3.01,8.19-6.26,10.32-14.2,6.92-13.61-5.83-26.15-5.33-38.64,2.84-3.88,2.54-8.89,2.11-13.45.81-2.22-.63-4.43-1.36-6.63-2.07Z"/>
    <path class="cls-7" d="m535.01,689.82c.36,5.4-1.25,11-3.87,16.75-.81,1.78-.63,4.16-3.58,4.27-2.65.1-3.6-1.99-4.17-3.61-1.73-4.85-4.83-8.77-7.99-12.64-3.37-4.13-7.57-4.04-11.29-.67-2.96,2.69-5.46,5.93-7.87,9.14-3.42,4.54-7.25,3.11-10.68.61-5.65-4.12-9.66-9.86-12.02-16.23-2.97-7.98-8.79-10.88-16.55-11.19-4.76-.19-8.35-2.18-9.86-6.45-1.41-4-2.21-8.22-3.13-12.4-.42-1.89.33-3.92,1.88-4.77.37-.2.75-.34,1.14-.37,15.06-1.1,14.8-1.13,18.62-14.89,2.32-8.34,7.83-14.35,18.46-9.98,11.53,4.74,23.23,9.08,34.91,13.45,5.73,2.15,7.2,6.73,4.79,11.23-4.76,8.89-2.81,16.15,3.79,22.66,4.88,4.81,7.07,9.86,7.41,15.09Z"/>
    <path class="cls-7" d="m458.97,443c-.37,3.02.38,6.18,2.35,9.23,1.8,2.8,4.83,4.95,6.14,7.9.86,1.95,4.86,3.02,2.37,6.28-1.54,2.01-1.92,4.49.74,5.53,3.87,1.51,8.12,1.5,12.04.03,2.46-.92,1.52-2.91.85-4.9-.54-1.6-.57-4.05,1.37-4.77,1.49-.55,3.35-.41,5.03,1.17,2.21,2.07,4.96,3.82,7.78,4.95,3.96,1.59,7.95,3.14,12.16-.52,5.13-4.46,10.98-5.08,16.97-2.27.99.46,2.14.21,2.89-.64,1.86-2.09,2.14-4.54.69-7.05-3.44-5.96-6.94-11.89-10.76-17.61-.95-1.41-4.16-3.15-4.73-2.7-3.78,2.91-5.13.68-6.6-2.3-.78-1.57-2.29-1.62-2.75,0-2.25,7.94-6.66,5.08-10.7,2.02-2.28-1.73-4.93-1.17-7.14-2.15-2.35-1.04-4.85-.28-7.27-1.87-7.31-4.8-11.38-4.23-17.02,1.28-2.55,2.49-4.06,5.37-4.43,8.39Z"/>
    <path class="cls-7" d="m488.02,1078.04c1.35-1.85,2.68-1.91,4.6-.63,5.25,3.5,7.35,11.35,4.68,17.76-1.15.21-3.06.07-3.93-.07-8.17-1.28-10.02-9.31-5.83-16.34.16-.27.31-.51.47-.72Z"/>
    <path class="cls-7" d="m526.13,293.4c.18-.48.43-.96.77-1.44,2.11-2.95,5.11-1.61,6.97.06,2.69,2.41,4.87,5.39,7.2,8.2.59.72.36,1.87-.43,2.28-4.91,2.48-8.57-1.03-12.35-3.55-2.17-1.44-2.92-3.48-2.16-5.55Z"/>
    <path class="cls-7" d="m990.88,123.06c.57-.31,1.24-.59.92-2.12-.98-4.69-10.31-14.85-15.17-15.43-.14-.02-.3.08-.47.24-.79.76-.84,2.12-.19,3.03,1.51,2.14,3.6,4.07,2.13,7.27-.56,1.21.23,2.9,1.36,2.69,4.01-.75,4.46,4.62,7.73,5.31.76.16,2.57-.38,3.68-1Z"/>
    <path class="cls-7" d="m284.75,912.95c-.48-.09-.94-.38-1.27-.82-.51-.7-.98-1.4-1.06-2.14-.62-5.72.59-10.89,5.39-14.65.4-.31.96-.13,1.16.36,2.16,5.35,2.32,10.65-1.01,15.66-.43.64-1.22,1.05-2.04,1.44-.38.18-.79.23-1.17.15Z"/>
    <path class="cls-7" d="m695.07,930.32c-.24,0-.46,0-.66-.06-1.7-.42-1.83-2.82-2.32-4.7-1.33-5.13.52-9.93.74-14.87.25-5.6,2.62-8.91,7.49-10.21,1.31-.35,2.7-.03,3.79.86,1.44,1.16,3.2,2.08,3.07,4.41-.45,8.27-1.42,16.42-7.9,22.54-1.05.99-2.84,1.98-4.21,2.03Z"/>
    <path class="cls-7" d="m849.17,164.26c-.78-.17-1.54-.49-2.24-.95-5.19-3.44-8.72-7.67-7.22-18.32.87-6.22,1.56-12.41,5.87-17.16,1.26-1.39,3.33-1.06,4.22.65,4.87,9.34,4.67,20.01,6.74,30.01.83,4.03-3.47,6.66-7.38,5.78Z"/>
    <path class="cls-7" d="m108.17,786.45c-3.75-.06-7.48-.84-11.14-2.27-1.32-.52-3.46-1.12-2.86-3.45.45-1.76,1.54-2.7,3.54-2.88,2.69-.24,5.35-.73,8.02-1.16,1.03-.17,2.07-.18,3.1-.05,2.96.38,5.96.62,8.81,1.41,1.22.34,3.49.24,3.65,2.68.15,2.29-1.66,3.66-2.94,4.1-3.38,1.15-6.78,1.68-10.16,1.63Z"/>
  </g>
  <g class="cls-6">
    <g class="cls-4">
      <path class="cls-3" d="m1236.56,762.03c20.47-17.11,56.9,6.24,45.26,35.3-.08.19-.17.38-.26.57-9.85,19.84,6.86,42.52-8.35,60.78-.1.13-.22.25-.34.37-20.72,21.4,9.92,51.99-18.87,67.24-1.04-5.91-1.02-11.84-.28-21.6,2.74-2.78,3.48-6.36.47-12.97-5.67-15.35-26.77-61.81-35.61-74.13-.33-.47-.62-.99-.83-1.54-6.03-16.02,13.85-31.07,16.26-49.36.24-1.87,1.2-3.53,2.55-4.66Z"/>
      <g>
        <path class="cls-3" d="m1045.6,444.22c-10.43-15.14-36.13-18.04-36.81-39.19.08-7.37,1.21-15.07-7.34-14.86-.42.02-.84,0-1.26-.07-24.3-4.37-69.62-31.62-72.16-60.76-.03-.36-.08-.72-.16-1.07-6.32-27.73-27.38,6.71-34.05,2.07-16.58-14.54-52.83-2.14-58.07,18.34-.37,1.44-.35,3,.13,4.41,2.33,6.77-4.81,11.79-2.67,18.46,15.02,37.13-51.84,3.03-54.18,32.52-.08,1.04-.37,2.05-.86,2.93-3.86,6.93-15.81,7.5-15.2,18.68-.59,6.21-6.86,10.18-8.94,6.99-2.86-4.37-5.78-4.17-9.55-3.04-.59.18-1.2.27-1.81.23-7.56-.43-14.41-5.58-22.56-4.93h-.03"/>
        <path class="cls-3" d="m1285.4,499.8c.04-.21.09-.42.12-.62,4.15-20.05,2.78-36.14-8.71-52.37-.54-.75-1.22-1.35-1.96-1.82-17.57-11.23-20.79-37.96-43.96-37.98-.25,0-.5-.02-.74-.05-25.87-3.36,4.4-37.62,11.63-51.03.25-.47.56-.9.89-1.3,11.43-13.62-19.95-25.62-28.84-20.95-8.93,4.52-15.75-7.58-24.9-5.24-1.82.46-3.74-.04-5.23-1.3-9.82-8.33-15.24-12.33-29.76-1.91-14.38,9.76-27.04-17.42-41.78-27.33-2-1.33-4.04-2.36-6.12-2.93-5.22-1.43-9.52,4.83-7.16,10.26,9.69,22.25,5.53,35.4-11.38,58.49-6.97,8.06-.86,14.74,2.9,21.3,3,5.23-.94,12-6.42,11.07-16.63-2.84-17.45-3.7-14.68,24.64.05.46.07.94.03,1.39-.99,12.2-14.06,15.63-22.53,23.47-4.74,4.4-8.05,10.19-6.96,19.7.08.68.09,1.38,0,2.05-8.16,62.94-60.87-40.4-59.76,40.5,0,.33-.02.66-.06.99-1.47,12.5,2.93,25.84-6.43,35.37-1.4,1.43-.65,5.4.33,8.38,4.27,8.81-6.29,15.71-.84,25.03,2.14,4.33,3.08,8.1,2.45,11.08-.92,4.29-5.1,6.94-13.73,7.22-11.17-.03-11.14,17.15-18.26,22.19-3.3,2.34-7.61.52-9.2-3.49-4-10.07,4.07-27-6.02-35.34-.31-.25-.6-.53-.86-.83-11.9-13.67-22.24,9.18-35.75,3-.47-.21-.91-.54-1.33-.88-20.08-16.63-40.67,31-53.43,11.53-.15-.23-.3-.5-.42-.75-14.42-28.84-33.74,32.14-53.14,32.43-17.4,2.56-30.17-15.71-48.75-11.53-.24.06-.49.1-.73.13-16.68,1.54-22.44-13.96-13.39-28.13.49-.78.89-1.64,1.09-2.57,3.58-16.78-22.49,1.76-25.96-12.06l-.06-.27"/>
        <path class="cls-3" d="m1615.68,757.22c12.69,13.82,17.13,37.82,7.79,59.72-.5,1.16-1.29,2.13-2.23,2.86-6.83,5.28-3.51,9.95-.94,15.04,2.27,4.48-.21,10.13-4.77,10.8-25.42,3.71-60.51-20.97-83.3-1.19-.26.22-.5.48-.73.74-5.61,6.55-11.64,7.91-20.09,4.67-29.48-12.47-30.98,42.58-61.1,30.48-.11-.05-.23-.09-.35-.13-41.3-13.2-6.75,22.79-34.54,27.89"/>
        <path class="cls-3" d="m1681.53,906.86c-3.97,23.21-26.57,49.93-29.82,72.52-2.39,14.68-25,16.06-23.39,32.82.15,1.49-.13,3.03-.83,4.31-5.58,10.1-29.8,7.98-39.55,4.32-.39-.15-.78-.25-1.18-.31-14.04-2.27-19.75-19.88-32.61-21.38-2.49-.29-4.89,1.1-6.18,3.51-22.3,41.7-20.05-.45-53.11,8.66-.45.13-.92.21-1.38.22-26.73.87-53.6-4.62-79.04-7.39-.67-.07-1.31-.26-1.93-.56-10.99-5.4-27.76-13.31-36.57-1.88-5.86,7.56-22.01,1.57-21.79,13.02.02.74-.09,1.49-.28,2.2-10.15,37.07,5.49,18.09,8.51,37.34.25,1.63-.04,3.3-.74,4.76-11.43,24,33.78,22.18,16.75,42.31-.33.4-.73.74-1.13,1.04-18.21,13.52,13.4,19.93,3.14,35.32-.25.37-.55.71-.86,1.02-27.71,27.4,26.57,33.07-9.27,77.41"/>
        <path class="cls-3" d="m1204.66,128.72c11.92,10.98-15.36,62.28-2.06,70.9.9.59,1.67,1.42,2.22,2.42,9.93,17.83,24.85,58.9,20.27,81.92-.83,4.19-4.82,6.54-8.42,5.1-24.03-9.62-52.37-11.82-74.5,7.45-8.89,7.38-21.31-8.06-30.01,1.39-.23.25-.46.51-.68.79"/>
        <path class="cls-3" d="m976.25,588.87c54.43,2.11,86.96-6.02,51.63,51.53-1.34,2.2-2.79,4.49-4.34,6.89-1.25,1.94-1.58,4.45-.87,6.7,3.12,9.92,5.79,14.91-6.14,20.42-.9.41-1.7,1.07-2.34,1.88-41.07,51.44-52.21-4.08-62.36,112.08-.04.48-.05.99,0,1.47,2.47,24.67,41.92,1.45,51.3,21.84.3.66.67,1.29,1.13,1.82,21.57,24.23,34.12-3.5,26.24,45.29-.09.57-.1,1.15-.07,1.72.96,17.37-23.06-.83-27.2,18.68-.06.3-.14.61-.23.9-8.56,25.74-37.12,76.8-23.8,106.58"/>
        <path class="cls-3" d="m1535.32,570.35c-10.08,5.76-17.98-6.24-26.75-4.77-2.22.37-4.05,2.1-4.95,4.42-7.71,19.78,20.46,30.75-2.66,55.74-.58.63-1.03,1.37-1.37,2.19-11.69,28.23-52.73-8.83-72.41,10.86-.47.47-.98.89-1.54,1.2-7.57,4.16,6.47,16.09-.14,18.09-10.53-3.25-19.11,7.8-28.93,3.24-.48-.23-.92-.56-1.34-.91-9.06-7.45-20.45,4.63-27.97-3.88-.95-1.08-2.22-1.77-3.56-1.95-12.73-1.74-13.65,20.03-2.98,27.33.32.23.64.47.93.75,7.61,7.65-5.1,6.22-6.52,13.78-4.41,11.46-15.63-12.83-25.23-.52-.29.37-.59.72-.93,1.02-12.39,11.09-30.79,19.99-47.85,20.03-12.56.03-24.38-4.74-32.51-16.96-1.76-2.76-3.37-5.81-2.9-9.24,4.94-14.27-16.53-5.64-16.05-19.24-1.19-24.62-32.72-13.84-47.15-17.76-3.97-1.07-5.94-5.96-4.22-10.13,2.95-7.15,1.93-14.33-.29-21.37-.19-.61-.42-1.21-.76-1.73-1-1.52-1.16-3.79-.64-6.58,3.25-17.73,33.53-55.88,42.36-46.77.62.64,1.3,1.2,2.08,1.54,6.66,2.88,7.99,2.64,10.26-4.45.34-1.08.46-2.23.31-3.36-3.05-22.58,16.95-28.4,34.06-30.95.75-.11,1.48-.36,2.15-.77,10.25-6.1,6.85-23.68,17.7-30.02,3.25-1.9,7.77-2.8,14.33-2.07,9.38.77,15.33-3.86,21.39-10.5.19-.22.4-.43.62-.62,17.4-14.69,28.29,40.24,44.42,9.53,6.77-13.91,12-29.68,29.02-22.67.94.39,1.95.52,2.94.38,20.63-3.1,40.11-18.62,61.26-23.1,5.68-.59,6.67-4.16,7.09-8.17.04-.39.04-.79.02-1.18-.83-19.62,32.8-52.76,43.11-27.45.25.63.39,1.31.48,1.99,3.64,28.46,61.93,28.81,71.56,58.57"/>
        <path class="cls-3" d="m1253.48,904.94c-4.01,4.07-11.82,5.91-16.48,10.98-15.87,14.11-16.84-14.14-28.18-17.81-1.82-.59-3.78-.08-5.33,1.14-10.1,7.92-4.77,30.82-20.83,33.49-.4.07-.81.16-1.2.31-17.11,6.59-18.84,29.68-40.97,23.59-3.3-.91-6.7,1.11-7.75,4.75-2.08,7.17-7.21,33.01-21.85,45.23"/>
        <path class="cls-3" d="m616.06,302.3c-3.8,16.45,8.47,14.55,7.85,27.94-2.06,14.54,4.31,11.49,9.12,20.71,25.2,37.56,74.82-11.39,81.44,46.36.19,1.67.86,3.26,1.96,4.41,7.43,7.77,7.08,15.52,3.68,23.21-7.71,17.46-31.13,34.63-14.98,51.14.62.63,1.12,1.4,1.46,2.25,7.48,18.73,34.09,44.77,10.62,57.32-.9.48-1.74,1.11-2.32,2.01-1.44,2.21-.86,4.6.61,7.04,9.97,13.66-11.37,14.74-18.6,22.81-.54.61-.96,1.33-1.25,2.11-.16.39-.28.81-.37,1.23-11.81,54.13-56.97-13.27-104.53,18.75"/>
        <path class="cls-3" d="m1508.6,202.67c-.98,31.59-31.64,20.73-50.03,13.26-3.76-1.53-7.85,1.1-8.55,5.53-.91,5.71.36,12.88-4.63,17.32-.2.18-.41.37-.59.58-7.07,8.09,7.75,9.26,13.65,10.8.75.2,1.47.55,2.1,1.05,9.65,7.78-14.87,25.69-8.82,40.94.3.74.45,1.55.49,2.35,1.13,23.65,24.64-3.37,27.3,11.83.23,1.31.84,2.52,1.67,3.48,75.29,87.9-40.54,19.14-9.01,113.11"/>
        <path class="cls-3" d="m1176.32,613.91c-48.83,6.78-96.15,61-148.44,26.49-.11-.07-.23-.14-.34-.22"/>
        <path class="cls-3" d="m1414.7,909.52c-18.56,17.27-4.64,39.4-11.36,60.17-.26.79-.41,1.64-.42,2.49-.17,9.4,5.15,12.37-1.22,24.99"/>
        <path class="cls-3" d="m1414.7,906.67c-26.61-37.39-53.89-8.36-77.88,17.42-1.03,1.1-2.36,1.8-3.78,1.95-28.81,3.24-72.06,39.77-79.04.25"/>
        <path class="cls-3" d="m1281.21,716.37l-.09.6c-1.43,11.11,6.52,23.64,11.37,33.67.19.39.42.75.66,1.1,6.27,9.05-13.79,7.79-15.61,16.4"/>
      </g>
    </g>
  </g>
  <path class="cls-8" d="m1236.57,762.18c20.47-17.11,56.9,6.24,45.26,35.3-.08.19-.17.38-.26.57-9.85,19.84,6.86,42.52-8.35,60.78-.1.13-.22.25-.34.37-20.72,21.4,9.92,51.99-18.87,67.24-1.04-5.91-1.02-11.84-.28-21.6,2.74-2.78,3.48-6.36.47-12.97-5.67-15.35-26.77-61.81-35.61-74.13-.33-.47-.62-.99-.83-1.54-6.03-16.02,13.85-31.07,16.26-49.36.24-1.87,1.2-3.53,2.55-4.66Z"/>
</svg>
