<?xml version="1.0" encoding="UTF-8"?>
<svg id="Layer_1" data-name="Layer 1" xmlns="http://www.w3.org/2000/svg" xmlns:xlink="http://www.w3.org/1999/xlink" viewBox="0 0 1200 1200">
  <defs>
    <style>
      .cls-1 {
        fill: url(#linear-gradient);
        stroke-width: 0px;
      }
    </style>
    <linearGradient id="linear-gradient" x1="268.51" y1="598.18" x2="928.77" y2="598.18" gradientUnits="userSpaceOnUse">
      <stop offset="0" stop-color="#74956c"/>
      <stop offset=".34" stop-color="#709775"/>
      <stop offset=".89" stop-color="#659f8d"/>
      <stop offset="1" stop-color="#63a193"/>
    </linearGradient>
  </defs>
  <path class="cls-1" d="m892.1,798.29c-15.23,22.7-24.04,27.71-34.06,27.71-13.96,0-21.65-8.74-21.65-21.36v-289.09c0-172.96-64.31-244.95-238.46-244.95-72.06,0-148.92,8.11-213.79,42.02-49.5,25.95-90.53,71.57-93.85,129.67-3.03,52.04,50.27,80.88,95.54,80.88,54.43,0,103.65-39.2,103.65-141.37v-42.31c6.35-.49,12.55-.64,18.83-.64,79.46,0,88.84,34.06,88.84,141.3v41.25c0,1.2,0,2.4.07,3.45-12.48,5.15-28.2,9.87-35.18,11.77-11.56,3.1-23.2,6.13-34.76,9.24-204.55,54.15-258.77,120.01-258.77,216.96,0,103.65,64.38,162.95,164.08,162.95s149.27-30.74,277.81-4.94c1.55.28,3.17.64,4.87.99.35.07.7.07,1.13.14.42,0,.78.14,1.27.14,12.69,2.47,26.72,3.66,41.74,3.66,89.76,0,138.9-30.32,169.36-107.32l-36.66-20.16Zm-207.58,2.33c-19.95,32.22-54.58,44.92-90.96,45.13-29.4.28-59.09-10.58-80.03-31.31-20.8-20.66-31.94-51.33-27.08-80.38,4.3-25.24,19.6-47.17,35.96-67.05,20.8-25.45,41.46-50.48,55.28-80.66,5.99-12.83,18.61-50.2,19.53-61.27.28,3.24.78,6.2,1.41,10.01,3.38,21.44,6.98,35.11,12.83,52.67,5.99,18.4,17.42,34.69,29.68,49.57,17.06,20.8,36.45,40.4,47.74,64.87,14.38,31.03,13.68,69.31-4.37,98.43Z"/>
</svg>
