<?xml version="1.0" encoding="UTF-8"?>
<svg id="Layer_1" data-name="Layer 1" xmlns="http://www.w3.org/2000/svg" xmlns:xlink="http://www.w3.org/1999/xlink" viewBox="0 0 1500 516.4">
  <defs>
    <style>
      .cls-1 {
        fill: url(#linear-gradient);
        stroke-width: 0px;
      }
    </style>
    <linearGradient id="linear-gradient" x1="95.93" y1="259.78" x2="1404.07" y2="259.78" gradientUnits="userSpaceOnUse">
      <stop offset=".19" stop-color="#74956c"/>
      <stop offset=".81" stop-color="#63a193"/>
    </linearGradient>
  </defs>
  <path class="cls-1" d="m230.38,156.52v25.43c-9.68-15.75-28.64-28.01-55.35-28.01-44.05,0-79.1,35.39-79.1,92.03s35.05,92.63,78.82,92.63c26.66,0,45.63-12.24,55.63-28.02v25.45h55v-179.52h-55Zm-39.26,134.12c-20.56,0-39.24-16.06-39.24-44.67s18.68-44.05,39.24-44.05,39.26,15.75,39.26,44.39-18.35,44.34-39.26,44.34Zm253.44-192.66v83.3c-10.96-16.37-31.53-27.33-55.3-27.33-44.11,0-79.16,35.39-79.16,92.03s35.05,92.63,79.16,92.63c26.35,0,45.34-11.91,55.3-28.36v25.79h55.02V97.98h-55.02Zm-39.24,192.66c-20.58,0-39.24-16.06-39.24-44.67s18.66-44.05,39.24-44.05,39.24,15.75,39.24,44.39-18.35,44.34-39.24,44.34Zm299.49,13.28c-4.56,6.79-7.19,8.28-10.2,8.28-4.17,0-6.46-2.6-6.46-6.38v-86.47c0-51.72-19.25-73.26-71.33-73.26-21.57,0-44.55,2.42-63.95,12.56-14.8,7.77-27.08,21.41-28.08,38.78-.9,15.57,15.05,24.19,28.59,24.19,16.27,0,30.99-11.71,30.99-42.28v-12.66c1.9-.13,3.75-.18,5.63-.18,23.77,0,26.58,10.19,26.58,42.27v12.33c0,.37,0,.71.03,1.04-3.73,1.52-8.44,2.95-10.53,3.51-3.47.93-6.94,1.83-10.4,2.76-61.19,16.21-77.4,35.9-77.4,64.9,0,31.01,19.25,48.74,49.07,48.74s44.65-9.19,83.09-1.47c.46.08.96.18,1.47.28.1.02.21.02.33.05.13,0,.24.03.37.03,3.81.75,8,1.11,12.5,1.11,26.84,0,41.54-9.06,50.64-32.1l-10.95-6.04Zm-62.1.69c-5.96,9.65-16.31,13.43-27.2,13.51-8.8.08-17.68-3.16-23.93-9.36-6.22-6.18-9.54-15.37-8.1-24.04,1.29-7.56,5.87-14.13,10.76-20.07,6.23-7.61,12.41-15.1,16.55-24.11,1.79-3.83,5.56-15.02,5.84-18.34.08.98.22,1.87.42,3,1,6.41,2.08,10.5,3.83,15.75,1.8,5.5,5.22,10.37,8.87,14.82,5.12,6.23,10.92,12.1,14.29,19.41,4.3,9.29,4.09,20.73-1.32,29.44Zm200-150.67c-26.41,0-45.34,12.25-55.3,28.01v-25.43h-55.02v265.05h55.02v-110.65c9.96,15.1,28.9,27.68,55.3,27.68,44.05,0,79.1-36.04,79.1-92.63s-35.05-92.03-79.1-92.03Zm-16.39,136.7c-20.61,0-39.24-15.73-39.24-44.34s18.63-44.39,39.24-44.39,39.53,15.41,39.53,44.05-18.63,44.67-39.53,44.67Zm198.04-1.23c-12.22,0-16.75-4.54-16.75-15.16v-72.05h36.05v-45.68h-36.05v-43.72h-54.97v43.72h-21.87v45.68h21.87v71.43c0,46.63,26.05,62.4,63.36,62.4h28v-46.63h-19.64Zm166.7-24.32c0-39.76-27.25-66.49-65.8-66.49s-67.5,27.2-67.5,69.68,28.72,69.95,67.5,69.95c33.15,0,54.48-18.92,62.1-42.49h-30.18c-5.15,10.58-14.75,18.92-31.92,18.92-20.61,0-36.54-13.48-38.54-35.85h103.34c.75-4.63,1-9.09,1-13.72Zm-104.09-8.85c2.93-21.36,18.17-34.09,37.09-34.09,20.81,0,37.28,13.25,37.8,34.09h-74.88Zm149.85-18.86c0-9.08,7.85-15.23,22.83-15.23s24.28,8.1,25.24,19.86h28.02c-1.5-26.99-21.62-43.41-52.29-43.41s-52.06,17.42-52.06,38.99c0,49.56,78.55,34.38,78.55,60.91,0,9.29-8.6,16.16-24.79,16.16s-25.99-9.08-26.99-20.12h-28.95c1.24,24.52,24.07,43.69,56.47,43.69s51.77-17.17,51.77-39.99c-1.47-48.86-77.79-33.66-77.79-60.86Zm167.26-13.77v-22.83h-32.85v-33.61h-28.26v33.61h-15.92v22.83h15.92v74.88c0,27.46,14.98,37.55,39.04,37.55h22.08v-23.32h-17.16c-11.79,0-15.7-4.19-15.7-14.23v-74.88h32.85Z"/>
</svg>